
<svg width="24" height="24" viewBox="0 0 24 24" fill="none" xmlns="http://www.w3.org/2000/svg">
<g id="game-icons:fruit-bowl">
<path id="Vector" d="M7.07353 12.5734H5.10009C5.18932 12.3874 5.32929 12.2305 5.50387 12.1206C5.67845 12.0107 5.88053 11.9524 6.08681 11.9524C6.29309 11.9524 6.49517 12.0107 6.66975 12.1206C6.84433 12.2305 6.98431 12.3874 7.07353 12.5734ZM10.231 11.9504C10.2316 11.6945 10.2504 11.439 10.2874 11.1858C10.1342 11.2105 9.98795 11.2675 9.85847 11.3531C9.72898 11.4386 9.61918 11.5507 9.53636 11.682C9.45354 11.8132 9.3996 11.9606 9.37811 12.1143C9.35663 12.268 9.36809 12.4245 9.41175 12.5734H10.2693C10.2451 12.3666 10.2331 12.1586 10.2332 11.9504H10.231ZM5.7998 7.91784C5.06681 7.18486 4.08239 6.41016 3.21408 6.41016H3.14189L3.18759 7.31231C3.60539 7.29202 4.27917 7.70138 5.03864 8.43994C5.08639 8.48619 5.13319 8.53263 5.17903 8.57925C5.30362 8.55234 5.43049 8.53743 5.55792 8.53472C5.60405 8.31666 5.68658 8.10793 5.80205 7.91728L5.7998 7.91784ZM6.94214 7.03036C7.06345 6.88785 7.17212 6.73504 7.26689 6.57366C7.41039 6.33022 7.52238 6.06954 7.60017 5.79788C7.67769 5.52794 7.72032 5.24919 7.72702 4.96842C7.73297 4.7072 7.70664 4.44624 7.64864 4.19147C7.62303 4.08051 7.59158 3.97098 7.55442 3.86334C7.52365 3.77433 7.48868 3.68682 7.44961 3.60112C7.42236 3.54175 7.39282 3.48346 7.36106 3.42638C7.35037 3.40608 7.33908 3.38972 7.33289 3.37903L7.32272 3.36263L7.30584 3.37106C7.29455 3.37673 7.27706 3.38522 7.25733 3.39647C7.19958 3.42819 7.14315 3.46223 7.08816 3.49852C7.00979 3.55051 6.93449 3.607 6.86264 3.66769C6.77464 3.73987 6.69051 3.81665 6.61059 3.8977C6.42781 4.08419 6.26873 4.29251 6.13697 4.51795C5.99561 4.76062 5.8859 5.02039 5.81053 5.29092C5.73297 5.56221 5.69014 5.84224 5.68308 6.12431C5.67753 6.38552 5.70384 6.64643 5.76145 6.90127C5.80783 7.10343 5.87432 7.30044 5.95992 7.48936C5.98195 7.53895 6.00338 7.58123 6.02255 7.61677C6.26945 7.33941 6.58862 7.13618 6.94439 7.0298L6.94214 7.03036ZM22.9928 4.97241C22.9821 4.96617 22.9651 4.956 22.9448 4.94531C22.8872 4.9143 22.8281 4.88608 22.7678 4.86075C22.6928 4.82916 22.6037 4.79419 22.5034 4.76208C22.3948 4.72753 22.2845 4.69874 22.173 4.67583C21.9168 4.62412 21.6553 4.60424 21.3943 4.61662C21.1137 4.62998 20.8359 4.67924 20.5677 4.7632C20.2993 4.84632 20.0424 4.96303 19.8032 5.11055C19.5809 5.24809 19.3762 5.41224 19.1937 5.59936L19.1683 5.62645C19.4277 5.93345 19.6282 6.28574 19.7597 6.66558C19.9356 6.68673 20.1128 6.69333 20.2898 6.68531C20.5705 6.67205 20.8484 6.62337 21.1169 6.54042C21.3856 6.45853 21.6428 6.34256 21.882 6.19533C22.1045 6.05811 22.3092 5.89393 22.4915 5.70652C22.5712 5.62467 22.6465 5.53865 22.717 5.44884C22.7819 5.36541 22.8366 5.28759 22.88 5.21766C22.9234 5.14772 22.9567 5.09025 22.9781 5.04848C22.9894 5.02819 22.9973 5.01019 23.0024 4.99889L23.0108 4.98141L22.9928 4.97241ZM18.9783 1.87584C18.958 1.7963 18.9383 1.72134 18.9321 1.6875L18.0423 1.851C18.0541 1.91587 18.0744 1.99364 18.1021 2.1008C18.234 2.61164 18.5379 3.78891 18.1715 4.83033C18.4486 4.97449 18.7038 5.15751 18.9292 5.37384C19.5286 4.01784 19.1407 2.51297 18.976 1.8758L18.9783 1.87584ZM8.44589 22.3125H14.1936C16.1717 22.3125 18.0688 21.5267 19.4675 20.128C20.8662 18.7293 21.652 16.8322 21.652 14.8541V13.4755H0.989202V14.8547C0.989352 16.8324 1.77498 18.729 3.17331 20.1276C4.57165 21.5261 6.4682 22.3121 8.44589 22.3125ZM19.9379 11.9504C19.9391 10.8176 19.5018 9.72831 18.7178 8.91075C18.8988 8.59702 19.0054 8.24585 19.0291 7.88439C19.0528 7.52292 18.9931 7.16084 18.8545 6.82614C18.716 6.49144 18.5024 6.19308 18.2301 5.95412C17.9579 5.71517 17.6343 5.54201 17.2845 5.44805C16.9346 5.35409 16.5679 5.34184 16.2125 5.41224C15.8572 5.48264 15.5228 5.63381 15.2352 5.85406C14.9476 6.07431 14.7145 6.35774 14.5539 6.68245C14.3934 7.00716 14.3096 7.36445 14.3092 7.72669C13.2907 8.02195 12.4132 8.67526 11.8383 9.56628C11.2634 10.4573 11.0298 11.526 11.1805 12.5757H19.8917C19.9218 12.3686 19.9373 12.1596 19.9379 11.9504ZM8.46675 12.2667C8.46659 11.7821 8.64343 11.3141 8.96405 10.9507C8.85908 10.7515 8.6953 10.5894 8.49496 10.4865C8.29462 10.3837 8.06747 10.345 7.84438 10.3758C7.6213 10.4066 7.41311 10.5054 7.24815 10.6587C7.08319 10.812 6.96945 11.0124 6.92241 11.2326C7.19289 11.3579 7.43207 11.5419 7.62255 11.7712C7.81303 12.0005 7.95003 12.2694 8.02359 12.5582C8.1803 12.5535 8.33413 12.515 8.47463 12.4454C8.46941 12.386 8.46678 12.3263 8.46675 12.2667ZM4.74544 11.5653C4.60834 11.3134 4.37801 11.1253 4.10384 11.0413C3.82967 10.9573 3.5335 10.9841 3.27885 11.1159C3.0242 11.2478 2.83136 11.4741 2.74167 11.7465C2.65198 12.0189 2.6726 12.3155 2.79909 12.5729H4.14384C4.23895 12.1845 4.44831 11.8335 4.74487 11.5653H4.74544ZM8.48817 8.43937C8.38465 8.24002 8.22236 8.0773 8.02326 7.97327C7.82417 7.86923 7.59791 7.82892 7.37514 7.85779C7.15237 7.88665 6.94386 7.9833 6.77785 8.13464C6.61185 8.28597 6.49638 8.48468 6.44709 8.70384C6.83646 8.88657 7.15699 9.1893 7.36163 9.56761C7.53487 9.50941 7.71533 9.47545 7.89788 9.46669C7.98616 9.07255 8.19174 8.71439 8.48756 8.43937H8.48817ZM9.84755 8.80589C9.6042 8.80543 9.36761 8.88596 9.17508 9.0348C8.98255 9.18364 8.84503 9.39231 8.78419 9.62794C9.16369 9.79197 9.48342 10.069 9.69984 10.4213C9.9424 10.3199 10.2027 10.2678 10.4655 10.2679H10.5056C10.598 9.99032 10.7136 9.72098 10.8512 9.46275C10.7658 9.26758 10.6254 9.10152 10.4472 8.98486C10.269 8.86821 10.0606 8.80601 9.84759 8.80589H9.84755ZM6.58861 10.0435C6.49031 9.84421 6.33372 9.67956 6.13963 9.5714C5.94554 9.46323 5.72313 9.41667 5.50196 9.43791C5.28078 9.45914 5.07129 9.54715 4.90132 9.69026C4.73135 9.83338 4.60894 10.0248 4.55034 10.2391C4.96881 10.4157 5.3152 10.7287 5.53312 11.1272C5.69825 11.0797 5.86882 11.0537 6.04059 11.0499C6.121 10.6681 6.31152 10.3182 6.58861 10.0435Z" fill="white"/>
</g>
</svg>
